<?xml version="1.0" standalone="no"?>
<!DOCTYPE svg PUBLIC "-//W3C//DTD SVG 20010904//EN"
 "http://www.w3.org/TR/2001/REC-SVG-20010904/DTD/svg10.dtd">
<svg version="1.0" xmlns="http://www.w3.org/2000/svg"
 width="512.000000pt" height="512.000000pt" viewBox="0 0 512.000000 512.000000"
 preserveAspectRatio="xMidYMid meet">
<metadata>
Created by potrace 1.16, written by Peter Selinger 2001-2019
</metadata>
<g transform="translate(0.000000,512.000000) scale(0.100000,-0.100000)"
fill="#000000" stroke="none">
<path d="M1499 4941 c-63 -25 -161 -90 -314 -210 -306 -241 -489 -338 -727
-386 -42 -8 -103 -15 -135 -15 -76 -1 -134 -15 -150 -36 -20 -28 -16 -91 7
-114 42 -42 297 -19 486 45 200 66 352 156 609 357 174 136 251 188 304 206
43 15 685 16 786 2 95 -14 165 -49 231 -114 106 -106 124 -182 124 -529 l0
-228 -52 7 c-110 13 -199 76 -238 167 -19 44 -24 75 -28 201 -4 128 -7 151
-23 167 -17 17 -37 19 -219 19 -181 0 -202 -2 -218 -18 -17 -17 -20 -42 -25
-203 -6 -213 -22 -279 -88 -378 -96 -145 -218 -212 -422 -237 -62 -7 -87 -31
-87 -84 0 -63 24 -80 113 -80 178 0 366 93 495 245 52 60 116 187 137 270 10
38 15 107 15 192 l0 133 79 0 79 0 4 -122 c3 -116 5 -127 37 -190 55 -111 144
-189 259 -229 42 -15 83 -19 179 -19 176 0 163 -23 163 300 l0 261 738 -3
c723 -3 738 -3 772 -24 103 -60 108 -208 8 -262 -62 -34 -80 -55 -80 -96 0
-49 33 -86 76 -86 81 1 190 90 225 186 64 170 -16 364 -174 423 -55 21 -70 21
-809 21 l-753 0 -17 62 c-53 189 -186 331 -369 393 l-76 25 -438 0 c-396 -1
-442 -3 -484 -19z"/>
<path d="M2980 3980 c-27 -27 -27 -93 -1 -119 11 -11 40 -23 64 -26 160 -24
203 -209 67 -289 -34 -20 -50 -21 -430 -21 -380 0 -396 1 -430 21 -50 29 -80
78 -80 131 0 51 10 74 56 126 41 45 44 84 10 123 -45 53 -122 30 -180 -55 -41
-58 -55 -107 -56 -188 0 -133 62 -238 175 -293 50 -25 53 -25 415 -30 345 -5
367 -6 400 -26 107 -63 107 -205 0 -268 -33 -20 -50 -21 -370 -21 -320 0 -337
1 -370 21 -46 27 -76 73 -85 129 -9 60 -34 85 -85 85 -58 0 -80 -26 -80 -95 0
-114 74 -230 178 -278 44 -21 65 -22 352 -27 285 -5 307 -6 340 -26 107 -63
107 -205 0 -268 -32 -19 -51 -21 -250 -21 -199 0 -218 2 -250 21 -46 27 -76
73 -85 129 -9 60 -34 85 -85 85 -58 0 -80 -26 -80 -94 0 -29 7 -73 15 -96 8
-23 15 -45 15 -48 0 -3 -127 -2 -282 1 -225 5 -303 10 -381 26 -135 28 -304
87 -503 177 -265 119 -243 114 -534 114 -237 0 -251 -1 -270 -20 -24 -24 -27
-87 -6 -116 13 -18 32 -19 258 -24 l243 -5 205 -91 c302 -135 435 -180 615
-209 73 -12 214 -15 732 -15 627 0 644 1 698 21 161 60 241 261 171 431 l-23
57 38 27 c118 81 163 254 105 396 l-23 57 38 27 c83 57 129 151 129 263 0 38
-7 88 -15 111 -8 23 -15 44 -15 46 0 2 178 4 395 4 382 0 396 1 415 20 13 13
20 33 20 60 0 27 -7 47 -20 60 -20 20 -33 20 -580 20 -547 0 -560 0 -580 -20z"/>
<path d="M4193 3674 c-15 -7 -119 -142 -177 -231 -68 -106 -133 -241 -157
-329 -31 -113 -25 -247 16 -329 37 -77 114 -153 190 -191 56 -27 68 -29 175
-29 107 0 119 2 175 29 76 38 153 114 190 190 38 78 46 208 20 317 -34 136
-186 404 -307 540 -30 33 -41 39 -74 38 -21 0 -44 -3 -51 -5z m104 -292 c186
-280 221 -463 110 -581 -44 -47 -101 -71 -167 -71 -66 0 -123 24 -167 71 -90
95 -84 237 19 429 41 78 139 230 148 230 3 0 28 -35 57 -78z"/>
<path d="M4180 2380 c-18 -18 -20 -33 -20 -160 l0 -140 -88 0 c-242 0 -449
-150 -527 -383 l-25 -76 0 -498 c0 -430 2 -507 16 -554 21 -72 67 -160 104
-202 16 -19 30 -37 30 -41 0 -3 -313 -6 -695 -6 -682 0 -695 0 -715 -20 -27
-27 -27 -93 0 -120 20 -20 33 -20 1128 -20 1229 0 1148 -4 1284 67 124 65 229
197 272 342 24 82 24 1020 0 1102 -72 245 -285 409 -533 409 l-91 0 0 140 c0
127 -2 142 -20 160 -13 13 -33 20 -60 20 -27 0 -47 -7 -60 -20z m265 -470 c95
-14 165 -49 231 -114 65 -66 100 -136 114 -231 13 -91 13 -799 0 -890 -14 -95
-49 -165 -114 -231 -98 -97 -190 -124 -436 -124 -246 0 -338 27 -436 124 -65
66 -100 136 -114 231 -13 91 -13 799 0 890 14 95 49 165 114 231 64 63 138
101 222 113 84 12 336 12 419 1z"/>
<path d="M3975 1741 c-22 -10 -54 -34 -72 -52 -61 -65 -63 -77 -63 -411 0
-338 2 -350 71 -415 62 -59 85 -63 329 -63 244 0 267 4 329 63 69 65 71 77 71
415 0 334 -2 346 -63 411 -63 66 -86 71 -337 71 -198 0 -230 -3 -265 -19z
m445 -152 c54 -19 60 -48 60 -307 0 -259 -5 -287 -56 -308 -47 -20 -321 -20
-368 0 -51 21 -56 49 -56 306 0 254 5 285 54 306 39 17 318 19 366 3z"/>
<path d="M4001 614 c-12 -15 -21 -39 -21 -54 0 -15 9 -39 21 -54 17 -22 29
-26 68 -26 52 0 75 16 86 62 13 53 -28 97 -92 98 -33 0 -46 -5 -62 -26z"/>
<path d="M4347 623 c-35 -40 -30 -98 12 -130 9 -7 35 -13 58 -13 33 0 46 5 62
26 12 15 21 39 21 54 0 15 -9 39 -21 54 -17 22 -29 26 -68 26 -33 0 -53 -5
-64 -17z"/>
<path d="M1926 298 c-9 -12 -16 -39 -16 -59 0 -48 36 -79 91 -79 52 0 79 27
79 80 0 57 -26 80 -89 80 -40 0 -53 -4 -65 -22z"/>
</g>
</svg>
